<svg xmlns="http://www.w3.org/2000/svg" xmlns:xlink="http://www.w3.org/1999/xlink" width="900" zoomAndPan="magnify" viewBox="0 0 675 225" height="300" preserveAspectRatio="xMidYMid meet" version="1.0"><defs><g/><clipPath id="52f8787b09"><rect x="0" width="598" y="0" height="204"/></clipPath></defs><g transform="matrix(1, 0, 0, 1, 38, 11)"><g clip-path="url(#52f8787b09)"><g fill="#ffffff" fill-opacity="1"><g transform="translate(0.927663, 160.419153)"><g><path d="M 19.8125 0 C 16.195312 0 13.597656 -0.785156 12.015625 -2.359375 C 10.441406 -3.941406 9.65625 -6.203125 9.65625 -9.140625 L 9.65625 -99.203125 C 9.65625 -102.140625 10.695312 -104.3125 12.78125 -105.71875 C 14.863281 -107.132812 17.148438 -107.84375 19.640625 -107.84375 C 22.003906 -107.84375 24.226562 -107.132812 26.3125 -105.71875 C 28.40625 -104.3125 29.453125 -102.140625 29.453125 -99.203125 L 29.453125 -16.9375 L 84.984375 -16.9375 C 88.253906 -16.9375 90.765625 -16.03125 92.515625 -14.21875 C 94.265625 -12.414062 95.140625 -10.5 95.140625 -8.46875 C 95.140625 -6.320312 94.265625 -4.375 92.515625 -2.625 C 90.765625 -0.875 88.253906 0 84.984375 0 Z M 19.8125 0 "/></g></g></g><g fill="#ffffff" fill-opacity="1"><g transform="translate(96.74744, 160.419153)"><g><path d="M 25.390625 -98.875 C 25.390625 -96.050781 24.34375 -93.929688 22.25 -92.515625 C 20.164062 -91.109375 17.941406 -90.40625 15.578125 -90.40625 C 13.085938 -90.40625 10.828125 -91.109375 8.796875 -92.515625 C 6.765625 -93.929688 5.75 -96.050781 5.75 -98.875 L 5.75 -101.0625 C 5.75 -104 6.765625 -106.144531 8.796875 -107.5 C 10.828125 -108.851562 13.085938 -109.53125 15.578125 -109.53125 C 17.941406 -109.53125 20.164062 -108.851562 22.25 -107.5 C 24.34375 -106.144531 25.390625 -104 25.390625 -101.0625 Z M 5.921875 -77.875 C 5.921875 -80.582031 6.960938 -82.640625 9.046875 -84.046875 C 11.140625 -85.460938 13.316406 -86.171875 15.578125 -86.171875 C 17.941406 -86.171875 20.140625 -85.460938 22.171875 -84.046875 C 24.203125 -82.640625 25.21875 -80.640625 25.21875 -78.046875 L 25.21875 -8.296875 C 25.21875 -5.472656 24.203125 -3.382812 22.171875 -2.03125 C 20.140625 -0.675781 17.941406 0 15.578125 0 C 13.316406 0 11.140625 -0.675781 9.046875 -2.03125 C 6.960938 -3.382812 5.921875 -5.472656 5.921875 -8.296875 Z M 5.921875 -77.875 "/></g></g></g><g fill="#ffffff" fill-opacity="1"><g transform="translate(129.251663, 160.419153)"><g><path d="M 52.140625 -87.859375 C 60.828125 -87.859375 68.191406 -86.023438 74.234375 -82.359375 C 80.273438 -78.691406 84.898438 -73.554688 88.109375 -66.953125 C 91.328125 -60.347656 92.9375 -52.703125 92.9375 -44.015625 C 92.9375 -35.441406 91.441406 -27.679688 88.453125 -20.734375 C 85.460938 -13.796875 81.171875 -8.320312 75.578125 -4.3125 C 69.992188 -0.3125 63.3125 1.6875 55.53125 1.6875 C 50.332031 1.6875 45.332031 0.8125 40.53125 -0.9375 C 35.738281 -2.6875 31.367188 -5.304688 27.421875 -8.796875 C 27.421875 -2.929688 24.375 0 18.28125 0 C 15.238281 0 12.84375 -0.757812 11.09375 -2.28125 C 9.34375 -3.8125 8.46875 -5.929688 8.46875 -8.640625 L 8.46875 -101.0625 C 8.46875 -104 9.453125 -106.144531 11.421875 -107.5 C 13.398438 -108.851562 15.628906 -109.53125 18.109375 -109.53125 C 20.484375 -109.53125 22.6875 -108.851562 24.71875 -107.5 C 26.75 -106.144531 27.765625 -104 27.765625 -101.0625 L 27.59375 -77.53125 C 31.320312 -81.03125 35.328125 -83.625 39.609375 -85.3125 C 43.898438 -87.007812 48.078125 -87.859375 52.140625 -87.859375 Z M 51.46875 -15.578125 C 58.125 -15.578125 63.484375 -18.171875 67.546875 -23.359375 C 71.609375 -28.554688 73.640625 -35.382812 73.640625 -43.84375 C 73.640625 -51.863281 71.46875 -58.328125 67.125 -63.234375 C 62.78125 -68.140625 57.050781 -70.59375 49.9375 -70.59375 C 45.425781 -70.59375 41.050781 -69.347656 36.8125 -66.859375 C 32.582031 -64.378906 29.507812 -60.828125 27.59375 -56.203125 L 27.421875 -30.8125 C 29.003906 -25.726562 32.050781 -21.914062 36.5625 -19.375 C 41.082031 -16.84375 46.050781 -15.578125 51.46875 -15.578125 Z M 51.46875 -15.578125 "/></g></g></g><g fill="#ffffff" fill-opacity="1"><g transform="translate(232.181736, 160.419153)"><g><path d="M 48.421875 -15.0625 C 51.691406 -15.0625 54.90625 -15.515625 58.0625 -16.421875 C 61.226562 -17.328125 64.164062 -18.851562 66.875 -21 C 69.46875 -23.363281 72.003906 -24.460938 74.484375 -24.296875 C 76.972656 -24.128906 79.035156 -23.222656 80.671875 -21.578125 C 82.304688 -19.941406 83.125 -17.910156 83.125 -15.484375 C 83.125 -13.054688 81.9375 -10.71875 79.5625 -8.46875 C 75.613281 -4.625 70.929688 -1.941406 65.515625 -0.421875 C 60.097656 1.097656 54.566406 1.800781 48.921875 1.6875 C 40.117188 1.6875 32.359375 -0.113281 25.640625 -3.71875 C 18.929688 -7.332031 13.6875 -12.351562 9.90625 -18.78125 C 6.125 -25.21875 4.234375 -32.671875 4.234375 -41.140625 C 4.234375 -50.390625 6.035156 -58.515625 9.640625 -65.515625 C 13.253906 -72.515625 18.363281 -77.988281 24.96875 -81.9375 C 31.570312 -85.882812 39.390625 -87.859375 48.421875 -87.859375 C 57.453125 -87.859375 65.125 -86.023438 71.4375 -82.359375 C 77.757812 -78.691406 82.582031 -73.554688 85.90625 -66.953125 C 89.238281 -60.347656 90.90625 -52.644531 90.90625 -43.84375 C 90.90625 -41.019531 90.34375 -38.617188 89.21875 -36.640625 C 88.09375 -34.671875 85.101562 -33.6875 80.25 -33.6875 L 23.875 -33.6875 C 25.445312 -28.15625 28.4375 -23.664062 32.84375 -20.21875 C 37.25 -16.78125 42.441406 -15.0625 48.421875 -15.0625 Z M 48.59375 -71.109375 C 42.039062 -71.109375 36.5625 -69.046875 32.15625 -64.921875 C 27.757812 -60.804688 24.941406 -55.414062 23.703125 -48.75 L 72.96875 -48.75 C 72.40625 -55.414062 70.203125 -60.804688 66.359375 -64.921875 C 62.523438 -69.046875 56.601562 -71.109375 48.59375 -71.109375 Z M 48.59375 -71.109375 "/></g></g></g><g fill="#ffffff" fill-opacity="1"><g transform="translate(335.281103, 160.419153)"><g><path d="M 45.703125 -86.171875 C 48.753906 -86.171875 51.179688 -85.519531 52.984375 -84.21875 C 54.796875 -82.925781 55.703125 -80.8125 55.703125 -77.875 C 55.703125 -75.164062 54.796875 -73.019531 52.984375 -71.4375 C 51.179688 -69.863281 48.753906 -69.078125 45.703125 -69.078125 C 38.597656 -69.078125 33.601562 -66.535156 30.71875 -61.453125 C 27.84375 -56.378906 26.40625 -49.492188 26.40625 -40.796875 L 26.40625 -8.640625 C 26.40625 -6.148438 25.503906 -4.085938 23.703125 -2.453125 C 21.898438 -0.816406 19.695312 0 17.09375 0 C 14.164062 0 11.796875 -0.816406 9.984375 -2.453125 C 8.179688 -4.085938 7.28125 -6.148438 7.28125 -8.640625 L 7.28125 -77.53125 C 7.28125 -80.238281 8.320312 -82.351562 10.40625 -83.875 C 12.5 -85.40625 14.726562 -86.171875 17.09375 -86.171875 C 19.46875 -86.171875 21.613281 -85.4375 23.53125 -83.96875 C 25.445312 -82.5 26.40625 -80.351562 26.40625 -77.53125 L 26.40625 -76.515625 C 28.894531 -79.796875 31.773438 -82.222656 35.046875 -83.796875 C 38.316406 -85.378906 41.867188 -86.171875 45.703125 -86.171875 Z M 45.703125 -86.171875 "/></g></g></g><g fill="#ffffff" fill-opacity="1"><g transform="translate(390.639875, 160.419153)"><g><path d="M 78.71875 -86.171875 C 81.65625 -86.171875 84 -85.351562 85.75 -83.71875 C 87.5 -82.082031 88.375 -79.96875 88.375 -77.375 L 88.375 -8.796875 C 88.375 -6.203125 87.5 -4.085938 85.75 -2.453125 C 84 -0.816406 81.65625 0 78.71875 0 C 75.894531 0 73.691406 -0.644531 72.109375 -1.9375 C 70.535156 -3.238281 69.582031 -4.960938 69.25 -7.109375 C 65.40625 -4.066406 61.113281 -1.835938 56.375 -0.421875 C 51.632812 0.984375 47.117188 1.6875 42.828125 1.6875 C 34.703125 1.6875 27.675781 -0.171875 21.75 -3.890625 C 15.820312 -7.617188 11.28125 -12.867188 8.125 -19.640625 C 4.96875 -26.410156 3.390625 -34.3125 3.390625 -43.34375 C 3.390625 -52.144531 5.132812 -59.875 8.625 -66.53125 C 12.125 -73.1875 17.003906 -78.40625 23.265625 -82.1875 C 29.535156 -85.96875 36.789062 -87.859375 45.03125 -87.859375 C 48.644531 -87.859375 52.648438 -87.179688 57.046875 -85.828125 C 61.453125 -84.472656 65.519531 -82.332031 69.25 -79.40625 C 69.695312 -81.4375 70.707031 -83.070312 72.28125 -84.3125 C 73.863281 -85.550781 76.007812 -86.171875 78.71875 -86.171875 Z M 44.859375 -15.40625 C 49.828125 -15.40625 54.625 -16.503906 59.25 -18.703125 C 63.875 -20.910156 67.148438 -24.15625 69.078125 -28.4375 L 69.078125 -57.734375 C 66.929688 -61.910156 63.710938 -65.125 59.421875 -67.375 C 55.128906 -69.632812 50.785156 -70.765625 46.390625 -70.765625 C 39.273438 -70.765625 33.546875 -68.164062 29.203125 -62.96875 C 24.859375 -57.78125 22.6875 -51.179688 22.6875 -43.171875 C 22.6875 -34.816406 24.71875 -28.097656 28.78125 -23.015625 C 32.84375 -17.941406 38.203125 -15.40625 44.859375 -15.40625 Z M 44.859375 -15.40625 "/></g></g></g><g fill="#10b981" fill-opacity="1"><g transform="translate(493.247543, 160.419153)"><g><path d="M 57.90625 -94.96875 L 46.890625 -101.234375 L 36.0625 -94.96875 C 34.03125 -93.84375 32.082031 -93.5625 30.21875 -94.125 C 28.351562 -94.6875 26.859375 -95.757812 25.734375 -97.34375 C 24.609375 -98.925781 24.1875 -100.644531 24.46875 -102.5 C 24.75 -104.363281 26.070312 -106.03125 28.4375 -107.5 L 42.5 -116.46875 C 44.414062 -117.71875 45.9375 -118.34375 47.0625 -118.34375 C 48.1875 -118.34375 49.65625 -117.71875 51.46875 -116.46875 L 65.515625 -107.5 C 67.890625 -106.03125 69.21875 -104.363281 69.5 -102.5 C 69.78125 -100.644531 69.351562 -98.925781 68.21875 -97.34375 C 67.09375 -95.757812 65.597656 -94.6875 63.734375 -94.125 C 61.878906 -93.5625 59.9375 -93.84375 57.90625 -94.96875 Z M 48.421875 -15.0625 C 51.691406 -15.0625 54.90625 -15.515625 58.0625 -16.421875 C 61.226562 -17.328125 64.164062 -18.851562 66.875 -21 C 69.46875 -23.363281 72.003906 -24.460938 74.484375 -24.296875 C 76.972656 -24.128906 79.035156 -23.222656 80.671875 -21.578125 C 82.304688 -19.941406 83.125 -17.910156 83.125 -15.484375 C 83.125 -13.054688 81.9375 -10.71875 79.5625 -8.46875 C 75.613281 -4.625 70.929688 -1.941406 65.515625 -0.421875 C 60.097656 1.097656 54.566406 1.800781 48.921875 1.6875 C 40.117188 1.6875 32.359375 -0.113281 25.640625 -3.71875 C 18.929688 -7.332031 13.6875 -12.351562 9.90625 -18.78125 C 6.125 -25.21875 4.234375 -32.671875 4.234375 -41.140625 C 4.234375 -50.390625 6.035156 -58.515625 9.640625 -65.515625 C 13.253906 -72.515625 18.363281 -77.988281 24.96875 -81.9375 C 31.570312 -85.882812 39.390625 -87.859375 48.421875 -87.859375 C 57.453125 -87.859375 65.125 -86.023438 71.4375 -82.359375 C 77.757812 -78.691406 82.582031 -73.554688 85.90625 -66.953125 C 89.238281 -60.347656 90.90625 -52.644531 90.90625 -43.84375 C 90.90625 -41.019531 90.34375 -38.617188 89.21875 -36.640625 C 88.09375 -34.671875 85.101562 -33.6875 80.25 -33.6875 L 23.875 -33.6875 C 25.445312 -28.15625 28.4375 -23.664062 32.84375 -20.21875 C 37.25 -16.78125 42.441406 -15.0625 48.421875 -15.0625 Z M 48.59375 -71.109375 C 42.039062 -71.109375 36.5625 -69.046875 32.15625 -64.921875 C 27.757812 -60.804688 24.941406 -55.414062 23.703125 -48.75 L 72.96875 -48.75 C 72.40625 -55.414062 70.203125 -60.804688 66.359375 -64.921875 C 62.523438 -69.046875 56.601562 -71.109375 48.59375 -71.109375 Z M 48.59375 -71.109375 "/></g></g></g></g></g></svg>