<?xml version="1.0" standalone="no"?>
<!DOCTYPE svg PUBLIC "-//W3C//DTD SVG 20010904//EN"
 "http://www.w3.org/TR/2001/REC-SVG-20010904/DTD/svg10.dtd">
<svg version="1.0" xmlns="http://www.w3.org/2000/svg"
 width="4016.000000pt" height="1535.000000pt" viewBox="0 0 4016.000000 1535.000000"
 preserveAspectRatio="xMidYMid meet">

<g transform="translate(0.000000,1535.000000) scale(0.100000,-0.100000)"
fill="#000000" stroke="none">
<path d="M5998 15056 c-70 -46 -192 -118 -270 -161 -79 -43 -442 -251 -808
-460 -366 -210 -1110 -638 -1655 -950 -545 -313 -1159 -665 -1365 -783 -206
-118 -419 -244 -473 -280 -432 -283 -752 -738 -879 -1249 l-22 -88 -4 -3410
-3 -3410 22 -90 c88 -367 310 -730 609 -993 167 -147 62 -84 2320 -1392 1010
-585 2100 -1220 2485 -1447 l170 -101 3 2674 c1 1471 1 3877 0 5347 l-3 2674
-135 -80 c-74 -44 -441 -255 -815 -470 -1077 -617 -1000 -569 -1035 -641 -19
-40 -19 -81 -25 -2961 -3 -1606 -8 -2954 -13 -2995 l-7 -76 -455 278 c-250
153 -614 373 -807 489 l-353 212 0 3023 0 3022 202 115 c937 531 2031 1152
2676 1520 l772 441 0 1163 c0 640 -1 1163 -2 1162 -2 -1 -60 -38 -130 -83z"/>
<path d="M7790 9770 l0 -5348 188 110 c103 61 508 295 900 520 904 518 850
485 887 543 l30 48 5 2902 c5 2747 6 2902 23 2928 24 36 73 60 112 54 17 -3
74 -31 126 -62 52 -32 289 -170 528 -307 422 -243 755 -442 808 -484 25 -20
26 -24 32 -170 12 -269 -10 -5816 -23 -5844 -6 -14 -42 -46 -81 -71 -38 -26
-484 -284 -990 -574 -506 -290 -1286 -737 -1732 -993 l-813 -465 0 -1164 c0
-639 2 -1163 6 -1163 3 0 31 17 62 38 78 52 198 123 377 222 83 46 402 228
710 405 308 177 868 499 1245 715 1685 966 2240 1287 2310 1333 472 316 808
838 900 1398 38 235 41 558 38 3644 l-4 2940 -21 110 c-89 452 -302 831 -638
1134 -165 148 -101 110 -2425 1456 -1079 626 -1793 1042 -2287 1333 l-273 160
0 -5348z"/>
<path d="M16950 12414 c-321 -40 -565 -146 -761 -331 -226 -214 -343 -500
-343 -843 0 -337 108 -604 334 -829 226 -225 538 -341 920 -341 307 0 611 80
865 228 70 41 80 51 79 75 0 15 -1 227 -2 472 l-2 445 -280 0 -280 0 -2 -322
-3 -322 -45 -13 c-168 -50 -368 -62 -489 -29 -221 60 -386 229 -447 456 -12
45 -17 103 -17 185 0 139 15 211 71 325 75 154 236 275 418 316 114 25 291 16
399 -20 102 -35 207 -94 275 -157 30 -27 57 -48 61 -47 12 4 388 342 388 349
1 3 -29 36 -66 73 -151 150 -355 254 -605 307 -91 20 -382 34 -468 23z"/>
<path d="M26725 12405 c-304 -50 -520 -153 -710 -340 -140 -138 -214 -256
-275 -440 -98 -298 -77 -640 58 -910 77 -155 225 -325 367 -422 143 -97 340
-175 526 -209 128 -23 361 -23 494 0 593 106 986 531 1012 1098 28 608 -346
1076 -966 1209 -128 27 -381 34 -506 14z m378 -524 c135 -35 256 -113 332
-213 91 -121 129 -247 129 -428 0 -208 -54 -353 -178 -475 -124 -123 -261
-178 -446 -179 -181 -1 -314 50 -438 168 -126 120 -192 285 -192 486 0 256
131 495 322 589 145 72 318 91 471 52z"/>
<path d="M18470 11246 l0 -1146 320 0 320 0 0 290 0 290 178 0 177 0 200 -290
200 -289 333 -1 c264 0 332 3 326 13 -4 6 -58 84 -119 172 -264 379 -345 496
-345 500 0 2 28 23 63 46 187 127 287 260 339 452 31 115 35 317 9 442 -71
345 -314 558 -726 637 -102 19 -154 21 -692 25 l-583 5 0 -1146z m1066 633
c117 -13 171 -35 228 -94 67 -68 90 -137 91 -260 0 -87 -4 -107 -26 -155 -51
-109 -118 -161 -229 -179 -36 -6 -161 -11 -277 -11 l-213 0 0 350 0 349 78 4
c174 7 258 6 348 -4z"/>
<path d="M20810 11773 c0 -340 5 -670 10 -733 27 -302 122 -542 275 -695 198
-198 556 -308 894 -275 133 12 280 45 387 85 264 99 442 314 532 644 l27 96 3
748 3 747 -316 0 -315 0 0 -718 c0 -775 0 -774 -54 -880 -80 -156 -252 -235
-447 -205 -194 31 -304 149 -345 373 -10 58 -13 226 -14 753 l0 677 -320 0
-320 0 0 -617z"/>
<path d="M23430 11246 l0 -1146 315 0 315 0 0 290 0 290 199 0 c371 0 572 35
766 132 162 82 268 190 343 346 63 133 85 251 79 412 -6 149 -24 225 -82 345
-117 242 -325 383 -660 447 -102 19 -155 21 -692 25 l-583 5 0 -1146z m1145
621 c168 -47 240 -147 240 -332 0 -116 -21 -179 -81 -241 -92 -94 -194 -118
-477 -112 l-192 5 -3 346 -2 346 92 4 c161 7 370 -1 423 -16z"/>
<path d="M15850 6035 l0 -3106 1628 4 c1776 3 1694 1 2072 63 1357 221 2292
1016 2596 2204 69 273 99 572 91 925 -5 255 -22 412 -63 615 -186 906 -743
1611 -1595 2019 -405 194 -806 297 -1409 362 -72 8 -603 13 -1712 16 l-1608 4
0 -3106z m3065 1695 c232 -19 402 -58 600 -137 470 -188 793 -567 914 -1073
39 -161 51 -279 51 -489 0 -343 -57 -601 -191 -861 -248 -481 -729 -775 -1359
-831 -85 -8 -355 -13 -727 -13 l-593 -1 0 1708 0 1707 593 0 c325 0 646 -5
712 -10z"/>
<path d="M23190 6035 l0 -3105 875 0 875 0 0 3105 0 3105 -875 0 -875 0 0
-3105z"/>
<path d="M26190 6035 l0 -3105 810 0 810 0 1 1533 c1 842 4 1560 8 1595 l6 62
69 -112 c38 -62 324 -529 636 -1038 312 -509 635 -1036 719 -1172 l153 -248
388 0 388 0 204 342 c113 189 444 744 735 1233 292 490 557 934 589 988 l59
97 7 -197 c5 -164 28 -2571 28 -2965 l0 -118 802 0 801 0 -7 2993 c-3 1645 -9
3043 -13 3105 l-6 112 -715 -2 -715 -3 -309 -520 c-1832 -3086 -1820 -3066
-1833 -3048 -14 22 -1296 2125 -1808 2968 l-364 600 -722 3 -721 2 0 -3105z"/>
<path d="M34650 6035 l0 -3105 2490 0 2490 0 0 675 0 675 -1625 0 -1625 0 0
575 0 575 1385 0 1385 0 0 650 0 650 -1385 0 -1385 0 0 530 0 530 1570 0 1570
0 0 675 0 675 -2435 0 -2435 0 0 -3105z"/>
</g>
</svg>
